<?xml version="1.0" encoding="utf-8"?>
<!-- Generator: Adobe Illustrator 18.1.1, SVG Export Plug-In . SVG Version: 6.00 Build 0)  -->
<svg version="1.1" xmlns="http://www.w3.org/2000/svg" xmlns:xlink="http://www.w3.org/1999/xlink" x="0px" y="0px"
	 viewBox="0 0 100 100" enable-background="new 0 0 100 100" xml:space="preserve">
<g id="Слой_2">
	<g>
		<path fill="#E1C6A9" d="M50,0C22.4,0,0,22.4,0,50s22.4,50,50,50s50-22.4,50-50S77.6,0,50,0z M50,98.8C23.1,98.8,1.3,76.9,1.3,50
			C1.3,23.1,23.1,1.3,50,1.3S98.8,23.1,98.8,50C98.8,76.9,76.9,98.8,50,98.8z"/>
	</g>
</g>
<g id="Слой_1">
	<g>
		<path fill="#E1C6A9" d="M64.2,35.8c-7.9-7.9-20.6-7.9-28.5,0s-7.9,20.6,0,28.5s20.6,7.9,28.5,0S72.1,43.6,64.2,35.8z M53,53.9
			l-3.4-3.4l-3.6,3.6l-1-1l3.6-3.6L45.1,46l0.9-0.9l3.4,3.4l3.6-3.6l1,1l-3.6,3.6l3.4,3.4L53,53.9z"/>
	</g>
</g>
</svg>
