<?xml version="1.0" encoding="utf-8"?>
<!-- Generator: Adobe Illustrator 18.1.1, SVG Export Plug-In . SVG Version: 6.00 Build 0)  -->
<svg version="1.1" id="Слой_2" xmlns="http://www.w3.org/2000/svg" xmlns:xlink="http://www.w3.org/1999/xlink" x="0px" y="0px"
	 viewBox="0 0 50 50" enable-background="new 0 0 50 50" xml:space="preserve">
<path fill="#2c1a61" d="M6.7,0.1v38.3h37.8V0.1H6.7z M14.2,26.2V33h-2.1v-6.8h-3v-2.1h8.6l-1.2,2.1H14.2z M20.1,33
	c-1.5,0-2.7-1.2-2.7-2.7c0-1.5,1.2-2.7,2.7-2.7h3.4v-0.9c0-0.1,0-0.2-0.1-0.3c-0.1-0.1-0.2-0.1-0.3-0.1h-5.2l1.2-2.1h4
	c1.5,0,2.6,1,2.6,2.5l0,6.4H20.1z M29.2,30.8c0.1,0.1,0.2,0.1,0.3,0.1h4.4V33h-4.4c-1.6,0-2.6-1-2.6-2.5v-3.9c0-1.5,1-2.5,2.6-2.5h5
	l-1.2,2.1h-3.8c-0.1,0-0.2,0-0.3,0.1c-0.1,0.1-0.1,0.2-0.1,0.3v3.9C29.1,30.6,29.1,30.7,29.2,30.8z M37.2,30.8
	c0.1,0.1,0.2,0.1,0.3,0.1h4.4V33h-4.4c-1.6,0-2.6-1-2.6-2.5v-3.9c0-1.5,1-2.5,2.6-2.5h5l-1.2,2.1h-3.8c-0.1,0-0.2,0-0.3,0.1
	c-0.1,0.1-0.1,0.2-0.1,0.3v3.9C37.1,30.6,37.1,30.7,37.2,30.8z"/>
<path fill="#2c1a61" d="M19.8,29.6c-0.1,0.1-0.2,0.4-0.2,0.6c0,0.2,0.1,0.4,0.2,0.6c0.1,0.1,0.3,0.2,0.5,0.2h3.1v-1.6h-3.1
	C20.2,29.4,20,29.5,19.8,29.6z"/>
</svg>
