<?xml version="1.0" encoding="utf-8"?>
<!-- Generator: Adobe Illustrator 18.1.1, SVG Export Plug-In . SVG Version: 6.00 Build 0)  -->
<svg version="1.1" id="Слой_2" xmlns="http://www.w3.org/2000/svg" xmlns:xlink="http://www.w3.org/1999/xlink" x="0px" y="0px"
	 viewBox="0 0 50 50" enable-background="new 0 0 50 50" xml:space="preserve">
<path fill="#FFFFFF" d="M8.1,43.1c0.1-0.1,0.2-0.3,0.2-0.4h0V43v1.7h0.4v-2.6H8.3l-1,1.7C7.2,44,7.1,44.1,7,44.3h0V44v-1.7H6.7v2.5
	h0.4L8.1,43.1z"/>
<polygon fill="#FFFFFF" points="11,43.3 9.8,43.3 9.8,42.2 9.4,42.2 9.4,44.8 9.8,44.8 9.8,43.6 11,43.6 11,44.8 11.3,44.8
	11.3,42.2 11,42.2 "/>
<path fill="#FFFFFF" d="M14.6,43.5c0-0.3-0.1-0.6-0.4-0.8c-0.2-0.1-0.4-0.2-0.7-0.2h-0.1l0-0.3h-0.4v0.3H13c-0.2,0-0.5,0.1-0.7,0.2
	c-0.2,0.2-0.4,0.5-0.4,0.8c0,0.3,0.1,0.6,0.3,0.8c0.2,0.2,0.5,0.2,0.7,0.2h0.1v0.3h0.4v-0.3h0.1c0.3,0,0.5-0.1,0.7-0.2
	C14.5,44,14.6,43.8,14.6,43.5z M13.1,44.2H13c-0.2,0-0.4-0.1-0.5-0.2c-0.3-0.3-0.2-0.8,0-1.1c0.1-0.1,0.3-0.2,0.5-0.2l0.1,0V44.2z
	 M14,44c-0.1,0.1-0.3,0.2-0.5,0.2h-0.1l0-1.4h0.1c0.2,0,0.3,0.1,0.5,0.2C14.3,43.2,14.3,43.7,14,44z"/>
<path fill="#FFFFFF" d="M16.3,44.8c0.3,0,0.7-0.1,0.9-0.4c0.2-0.3,0.3-0.6,0.3-0.9c0-0.3-0.1-0.7-0.3-0.9c-0.2-0.3-0.6-0.4-0.9-0.4
	c-0.3,0-0.7,0.1-0.9,0.4c-0.2,0.3-0.3,0.6-0.3,0.9c0,0.3,0.1,0.7,0.3,0.9C15.6,44.7,16,44.8,16.3,44.8z M15.7,42.8
	c0.2-0.2,0.4-0.3,0.6-0.3c0.2,0,0.5,0.1,0.6,0.3c0.3,0.4,0.3,1,0,1.4c-0.2,0.2-0.4,0.3-0.6,0.3c-0.2,0-0.5-0.1-0.6-0.3
	C15.4,43.8,15.4,43.2,15.7,42.8z"/>
<path fill="#FFFFFF" d="M18.5,43.8h0.4c0.3,0,0.5-0.1,0.7-0.3c0.1-0.1,0.2-0.3,0.2-0.5c0-0.2-0.1-0.4-0.3-0.6
	c-0.2-0.1-0.4-0.2-0.7-0.2h-0.7v2.6h0.4V43.8z M18.5,42.5h0.3c0.1,0,0.3,0,0.4,0.1c0.1,0.1,0.2,0.2,0.2,0.3c0,0.1,0,0.2-0.1,0.3
	c-0.1,0.1-0.2,0.1-0.4,0.1h-0.4V42.5z"/>
<polygon fill="#FFFFFF" points="21.6,44.3 20.8,42.2 20.2,42.2 20.2,44.8 20.6,44.8 20.6,42.6 21.4,44.8 21.8,44.8 22.6,42.6
	22.6,44.8 23,44.8 23,42.2 22.4,42.2 "/>
<path fill="#FFFFFF" d="M26,44.8L25,42.2h-0.4l-1.1,2.6h0.4l0.3-0.6h1.2l0.3,0.6H26z M24.3,43.8l0.5-1.3l0.5,1.3H24.3z"/>
<polygon fill="#FFFFFF" points="28.4,42.2 28,42.2 28,44.5 26.9,44.5 26.9,42.2 26.5,42.2 26.5,44.8 28.3,44.8 28.3,45.3 28.6,45.3
	28.6,44.5 28.4,44.5 "/>
<path fill="#FFFFFF" d="M30.8,42.7L30.8,42.7l0,0.3v1.7h0.4v-2.6h-0.4l-1,1.7c-0.1,0.1-0.2,0.3-0.2,0.4V44v-1.7h-0.4v2.6h0.4l1-1.7
	C30.7,43,30.7,42.9,30.8,42.7z"/>
<path fill="#FFFFFF" d="M33,44.8c0.3,0,0.7-0.1,0.9-0.4c0.2-0.3,0.3-0.6,0.3-0.9c0-0.3-0.1-0.7-0.3-0.9c-0.2-0.2-0.6-0.4-0.9-0.4
	c-0.3,0-0.7,0.1-0.9,0.4c-0.2,0.3-0.3,0.6-0.3,0.9c0,0.3,0.1,0.7,0.3,0.9C32.3,44.7,32.7,44.8,33,44.8z M32.4,42.8
	c0.2-0.2,0.4-0.3,0.6-0.3c0.2,0,0.5,0.1,0.6,0.3c0.3,0.4,0.3,1,0,1.4c-0.2,0.2-0.4,0.3-0.6,0.3c-0.2,0-0.5-0.1-0.6-0.3
	C32.1,43.8,32.1,43.2,32.4,42.8z"/>
<polygon fill="#FFFFFF" points="36.4,43.3 35.2,43.3 35.2,42.2 34.8,42.2 34.8,44.8 35.2,44.8 35.2,43.6 36.4,43.6 36.4,44.8
	36.7,44.8 36.7,42.2 36.4,42.2 "/>
<polygon fill="#FFFFFF" points="39,43.3 37.8,43.3 37.8,42.2 37.5,42.2 37.5,44.8 37.8,44.8 37.8,43.6 39,43.6 39,44.8 39.4,44.8
	39.4,42.2 39,42.2 "/>
<path fill="#FFFFFF" d="M41.2,42.2c-0.3,0-0.7,0.1-0.9,0.4c-0.2,0.3-0.3,0.6-0.3,0.9c0,0.3,0.1,0.7,0.3,0.9c0.2,0.2,0.6,0.4,0.9,0.4
	s0.7-0.1,0.9-0.4c0.2-0.3,0.3-0.6,0.3-0.9c0-0.3-0.1-0.7-0.3-0.9C41.9,42.3,41.6,42.2,41.2,42.2z M41.8,44.2
	c-0.2,0.2-0.4,0.3-0.6,0.3c-0.2,0-0.5-0.1-0.6-0.3c-0.3-0.4-0.3-1,0-1.4c0.2-0.2,0.4-0.3,0.6-0.3c0.2,0,0.5,0.1,0.6,0.3
	C42.1,43.2,42.1,43.8,41.8,44.2z"/>
<polygon fill="#FFFFFF" points="44.5,42.5 44.5,42.2 43,42.2 43,44.8 44.5,44.8 44.5,44.5 43.4,44.5 43.4,43.6 44.4,43.6 44.4,43.3
	43.4,43.3 43.4,42.5 "/>
<path fill="#FFFFFF" d="M7.7,47.3l-1.1,2.6H7l0.3-0.6h1.2l0.3,0.6h0.4L8,47.3H7.7z M7.3,48.9l0.5-1.3l0.5,1.3H7.3z"/>
<polygon fill="#FFFFFF" points="9.7,49.9 10,49.9 10,47.6 11,47.6 11,47.3 9.7,47.3 "/>
<polygon fill="#FFFFFF" points="11.6,49.9 13,49.9 13,49.6 11.9,49.6 11.9,48.7 12.9,48.7 12.9,48.4 11.9,48.4 11.9,47.6 13,47.6
	13,47.3 11.6,47.3 "/>
<polygon fill="#FFFFFF" points="15.2,48.4 14,48.4 14,47.3 13.7,47.3 13.7,49.9 14,49.9 14,48.7 15.2,48.7 15.2,49.9 15.6,49.9
	15.6,47.3 15.2,47.3 "/>
<polygon fill="#FFFFFF" points="16.2,47.6 17,47.6 17,49.9 17.3,49.9 17.3,47.6 18.1,47.6 18.1,47.3 16.2,47.3 "/>
<path fill="#FFFFFF" d="M19.8,49.6c-0.3,0-0.6-0.1-0.8-0.3c-0.2-0.2-0.2-0.4-0.2-0.7c0-0.3,0.1-0.6,0.3-0.8c0.2-0.1,0.4-0.2,0.6-0.2
	c0.2,0,0.4,0,0.5,0.1l0-0.3c-0.2-0.1-0.4-0.1-0.5-0.1c-0.3,0-0.6,0.1-0.9,0.3c-0.3,0.2-0.5,0.6-0.5,1c0,0.3,0.1,0.7,0.3,0.9
	c0.4,0.4,1,0.5,1.6,0.3l0-0.4C20.2,49.5,20,49.6,19.8,49.6z"/>
<polygon fill="#FFFFFF" points="20.8,47.6 21.6,47.6 21.6,49.9 22,49.9 22,47.6 22.8,47.6 22.8,47.3 20.8,47.3 "/>
<path fill="#FFFFFF" d="M24.4,48.6c0.2,0,0.3-0.1,0.4-0.2c0.1-0.1,0.1-0.3,0.1-0.4c0-0.2-0.1-0.4-0.2-0.5c-0.2-0.1-0.4-0.2-0.7-0.2
	h-0.7v2.5H24c0.3,0,0.5-0.1,0.8-0.2c0.1-0.1,0.2-0.3,0.2-0.5c0-0.2-0.1-0.3-0.2-0.4C24.7,48.6,24.5,48.6,24.4,48.6z M23.7,47.6h0.4
	c0.1,0,0.2,0,0.3,0.1c0.1,0.1,0.1,0.2,0.1,0.3c0,0.1,0,0.2-0.1,0.3c-0.2,0.1-0.4,0.1-0.5,0.1h-0.2V47.6z M24.5,49.4
	c-0.1,0.1-0.3,0.2-0.5,0.1h-0.3l0-0.8h0.2c0.1,0,0.3,0,0.4,0.1c0.1,0.1,0.2,0.2,0.2,0.4C24.6,49.3,24.5,49.3,24.5,49.4z"/>
<path fill="#FFFFFF" d="M27.6,47.7c-0.2-0.2-0.6-0.4-0.9-0.4c-0.3,0-0.7,0.1-0.9,0.4c-0.2,0.3-0.3,0.6-0.3,0.9
	c0,0.3,0.1,0.7,0.3,0.9c0.2,0.2,0.6,0.4,0.9,0.4c0.3,0,0.7-0.1,0.9-0.4c0.2-0.3,0.3-0.6,0.3-0.9C27.9,48.3,27.8,47.9,27.6,47.7
	L27.6,47.7z M27.3,49.3c-0.2,0.2-0.4,0.3-0.6,0.3c-0.2,0-0.5-0.1-0.6-0.3c-0.3-0.4-0.3-1,0-1.4c0.2-0.2,0.4-0.3,0.6-0.3
	c0.2,0,0.5,0.1,0.6,0.3C27.6,48.3,27.6,48.9,27.3,49.3z"/>
<path fill="#FFFFFF" d="M30.3,47.3h-0.7v2.6H30v-1h0.4c0.3,0,0.5-0.1,0.7-0.3c0.1-0.1,0.2-0.3,0.2-0.5c0-0.2-0.1-0.4-0.3-0.6
	C30.8,47.4,30.6,47.3,30.3,47.3z M30.8,48.4c-0.1,0.1-0.2,0.1-0.4,0.1H30v-0.9h0.3c0.1,0,0.3,0,0.4,0.1c0.1,0.1,0.2,0.2,0.2,0.3
	C30.9,48.2,30.8,48.3,30.8,48.4z"/>
<path fill="#FFFFFF" d="M33,47.3c-0.3,0-0.7,0.1-0.9,0.4c-0.2,0.3-0.3,0.6-0.3,0.9c0,0.3,0.1,0.7,0.3,0.9c0.2,0.2,0.6,0.4,0.9,0.4
	c0.3,0,0.7-0.1,0.9-0.4c0.2-0.3,0.3-0.6,0.3-0.9c0-0.3-0.1-0.7-0.3-0.9C33.7,47.4,33.3,47.3,33,47.3z M33.6,49.3
	c-0.2,0.2-0.4,0.3-0.6,0.3c-0.2,0-0.5-0.1-0.6-0.3c-0.3-0.4-0.3-1,0-1.4c0.2-0.2,0.4-0.3,0.6-0.3c0.2,0,0.5,0.1,0.6,0.3
	C33.9,48.3,33.9,48.9,33.6,49.3z"/>
<path fill="#FFFFFF" d="M36.1,47.6c0.2,0,0.4,0,0.5,0.1l0-0.3c-0.2-0.1-0.4-0.1-0.5-0.1c-0.3,0-0.6,0.1-0.9,0.3
	c-0.3,0.2-0.5,0.6-0.5,1c0,0.3,0.1,0.7,0.3,0.9c0.4,0.4,1,0.5,1.5,0.3l0-0.4c-0.2,0.1-0.3,0.1-0.5,0.1c-0.3,0-0.6-0.1-0.8-0.3
	c-0.2-0.2-0.2-0.4-0.2-0.7c0-0.3,0.1-0.6,0.3-0.8C35.7,47.7,35.9,47.6,36.1,47.6z"/>
<path fill="#FFFFFF" d="M38.5,49.6c-0.3,0-0.6-0.1-0.8-0.3c-0.2-0.2-0.2-0.4-0.2-0.7c0-0.3,0.1-0.6,0.3-0.8c0.2-0.1,0.4-0.2,0.6-0.2
	c0.2,0,0.4,0,0.5,0.1l0-0.3c-0.2-0.1-0.4-0.1-0.5-0.1c-0.3,0-0.6,0.1-0.9,0.3c-0.3,0.2-0.5,0.6-0.5,1c0,0.3,0.1,0.7,0.3,0.9
	c0.4,0.4,1,0.5,1.6,0.3l0-0.4C38.8,49.5,38.7,49.6,38.5,49.6z"/>
<path fill="#FFFFFF" d="M40.3,49c-0.1,0.1-0.2,0.3-0.2,0.4h0v-0.3v-1.7h-0.4v2.6h0.4l1-1.7c0.1-0.1,0.2-0.3,0.2-0.4h0v0.3v1.7h0.4
	v-2.6h-0.4L40.3,49z"/>
<path fill="#FFFFFF" d="M43.1,49c-0.1,0.1-0.2,0.3-0.2,0.4h0v-0.3v-1.7h-0.4v2.6h0.4l1-1.7c0.1-0.1,0.2-0.3,0.2-0.4h0v0.3v1.7h0.4
	v-2.6h-0.4L43.1,49z"/>
<path fill="#FFFFFF" d="M6.7,0.1v38.3h37.8V0.1H6.7z M14.2,26.2V33h-2.1v-6.8h-3v-2.1h8.6l-1.2,2.1H14.2z M20.1,33
	c-1.5,0-2.7-1.2-2.7-2.7c0-1.5,1.2-2.7,2.7-2.7h3.4v-0.9c0-0.1,0-0.2-0.1-0.3c-0.1-0.1-0.2-0.1-0.3-0.1h-5.2l1.2-2.1h4
	c1.5,0,2.6,1,2.6,2.5l0,6.4H20.1z M29.2,30.8c0.1,0.1,0.2,0.1,0.3,0.1h4.4V33h-4.4c-1.6,0-2.6-1-2.6-2.5v-3.9c0-1.5,1-2.5,2.6-2.5h5
	l-1.2,2.1h-3.8c-0.1,0-0.2,0-0.3,0.1c-0.1,0.1-0.1,0.2-0.1,0.3v3.9C29.1,30.6,29.1,30.7,29.2,30.8z M37.2,30.8
	c0.1,0.1,0.2,0.1,0.3,0.1h4.4V33h-4.4c-1.6,0-2.6-1-2.6-2.5v-3.9c0-1.5,1-2.5,2.6-2.5h5l-1.2,2.1h-3.8c-0.1,0-0.2,0-0.3,0.1
	c-0.1,0.1-0.1,0.2-0.1,0.3v3.9C37.1,30.6,37.1,30.7,37.2,30.8z"/>
<path fill="#FFFFFF" d="M19.8,29.6c-0.1,0.1-0.2,0.4-0.2,0.6c0,0.2,0.1,0.4,0.2,0.6c0.1,0.1,0.3,0.2,0.5,0.2h3.1v-1.6h-3.1
	C20.2,29.4,20,29.5,19.8,29.6z"/>
</svg>
