<?xml version="1.0" encoding="utf-8"?>
<!-- Generator: Adobe Illustrator 18.1.1, SVG Export Plug-In . SVG Version: 6.00 Build 0)  -->
<svg version="1.1" xmlns="http://www.w3.org/2000/svg" xmlns:xlink="http://www.w3.org/1999/xlink" x="0px" y="0px"
	 viewBox="0 0 100 100" enable-background="new 0 0 100 100" xml:space="preserve">
<g id="Слой_2">
	<g>
		<path fill="#E1C6A9" d="M50,0C22.4,0,0,22.4,0,50s22.4,50,50,50s50-22.4,50-50S77.6,0,50,0z M50,98.8C23.1,98.8,1.3,76.9,1.3,50
			C1.3,23.1,23.1,1.3,50,1.3S98.8,23.1,98.8,50C98.8,76.9,76.9,98.8,50,98.8z"/>
	</g>
</g>
<g id="Слой_1">
	<g>
		<path fill="#E1C6A9" d="M50,29.9c-11.1,0-20.1,9-20.1,20.1s9,20.1,20.1,20.1s20.1-9,20.1-20.1S61.1,29.9,50,29.9z M54.9,50.6H50
			v5.1h-1.4v-5.1h-4.9v-1.3h4.9v-5.1H50v5.1h4.9V50.6z"/>
	</g>
</g>
</svg>
