<svg id="Layer_1" xmlns="http://www.w3.org/2000/svg" width="21" height="28" viewBox="0 0 21 28"><style>.st0{fill:#ec3747}.st1{fill:#fff}</style><path class="st0" d="M10.5 1C5.3 1 1 5.2 1 10.4c0 4.2 4.1 10.9 6.9 15.1 1.3 1.9 4 1.9 5.3 0 2.8-4.2 6.9-11 6.9-15.2C20 5.2 15.7 1 10.5 1z"/><path class="st1" d="M12.3 25c-.4.6-1.1 1-1.8 1s-1.4-.4-1.8-1C4.4 18.6 2 13.4 2 10.4 2 5.8 5.8 2 10.5 2S19 5.8 19 10.4c0 3-2.4 8.2-6.7 14.6zM10.5 0C4.7 0 0 4.7 0 10.4c0 4.3 3.8 10.9 7 15.7.8 1.2 2.1 1.9 3.5 1.9s2.7-.7 3.5-1.8c3.2-4.8 7-11.4 7-15.7C21 4.7 16.3 0 10.5 0z"/><path class="st1" d="M13.7 10.4c0 2.1-1.1 3.1-3.2 3.1s-3.2-1-3.2-3.1 1.1-3.1 3.2-3.1 3.2 1 3.2 3.1z"/></svg>