<svg id="Layer_1" xmlns="http://www.w3.org/2000/svg" width="21" height="28" viewBox="-287 406.9 21 28"><style>.st0{fill:#f5b12f}.st1{fill:#fff}</style><path class="st0" d="M-276.5 407.9c-5.2 0-9.5 4.2-9.5 9.4 0 4.2 4.1 10.9 6.9 15.1 1.3 1.9 4 1.9 5.3 0 2.8-4.2 6.9-11 6.9-15.2-.1-5.1-4.4-9.3-9.6-9.3z"/><path class="st1" d="M-274.7 431.9c-.4.6-1.1 1-1.8 1s-1.4-.4-1.8-1c-4.3-6.4-6.7-11.6-6.7-14.6 0-4.6 3.8-8.4 8.5-8.4s8.5 3.8 8.5 8.4c0 3-2.4 8.2-6.7 14.6zm-1.8-25c-5.8 0-10.5 4.7-10.5 10.4 0 4.3 3.8 10.9 7 15.7.8 1.2 2.1 1.9 3.5 1.9s2.7-.7 3.5-1.8c3.2-4.8 7-11.4 7-15.7 0-5.8-4.7-10.5-10.5-10.5z"/><path class="st1" d="M-273.3 417.3c0 2.1-1.1 3.1-3.2 3.1s-3.2-1-3.2-3.1 1.1-3.1 3.2-3.1 3.2 1 3.2 3.1z"/></svg>