<svg id="Layer_1" xmlns="http://www.w3.org/2000/svg" width="36" height="47" viewBox="0 0 36 47"><style>.st0{fill:#06c498}.st1{fill:#fff}</style><path class="st0" d="M17.9 1C8.7 1 1 8.3 1 17.3c0 7.3 7.3 18.9 12.3 26.2a5.7 5.7 0 0 0 9.4 0c5-7.3 12.3-19.1 12.3-26.4C34.8 8.3 27.2 1 17.9 1z"/><path id="XMLID_28_" class="st1" d="M18 47c-2.2 0-4.2-1.1-5.5-2.9C4.1 31.8 0 23.1 0 17.3 0 7.8 8 0 17.9 0 27.7 0 35.8 7.7 36 17.1c0 7.2-6.8 18.7-12.5 27-1.3 1.8-3.3 2.9-5.5 2.9zm-.1-45C9.1 2 2 8.9 2 17.3 2 22.6 6.1 31.2 14.1 43c.9 1.3 2.3 2 3.9 2s3-.7 3.9-2C29.8 31.4 34 22.4 34 17.1 33.8 8.8 26.6 2 17.9 2z"/></svg>